{
	"asset":{
		"generator":"Khronos glTF Blender I/O v5.0.21",
		"version":"2.0"
	},
	"extensionsUsed":[
		"KHR_materials_specular"
	],
	"scene":0,
	"scenes":[
		{
			"name":"Scene",
			"nodes":[
				0
			]
		}
	],
	"nodes":[
		{
			"mesh":0,
			"name":"Abadoned_Factory_(Updated)__-768_5_-1063_to_-707_37_-1039",
			"rotation":[
				0.7071068286895752,
				0,
				0,
				0.7071068286895752
			]
		}
	],
	"materials":[
		{
			"doubleSided":true,
			"extensions":{
				"KHR_materials_specular":{
					"specularFactor":0
				}
			},
			"name":"Stone",
			"pbrMetallicRoughness":{
				"baseColorTexture":{
					"index":0
				},
				"metallicFactor":0
			}
		},
		{
			"doubleSided":true,
			"extensions":{
				"KHR_materials_specular":{
					"specularFactor":0
				}
			},
			"name":"Grass_Block",
			"pbrMetallicRoughness":{
				"baseColorTexture":{
					"index":1
				},
				"metallicFactor":0
			}
		},
		{
			"doubleSided":true,
			"extensions":{
				"KHR_materials_specular":{
					"specularFactor":0
				}
			},
			"name":"Dirt",
			"pbrMetallicRoughness":{
				"baseColorTexture":{
					"index":2
				},
				"metallicFactor":0
			}
		},
		{
			"doubleSided":true,
			"extensions":{
				"KHR_materials_specular":{
					"specularFactor":0
				}
			},
			"name":"Cobblestone",
			"pbrMetallicRoughness":{
				"baseColorTexture":{
					"index":3
				},
				"metallicFactor":0
			}
		},
		{
			"alphaMode":"BLEND",
			"doubleSided":true,
			"extensions":{
				"KHR_materials_specular":{
					"specularFactor":0
				}
			},
			"name":"Short_Grass",
			"pbrMetallicRoughness":{
				"baseColorTexture":{
					"index":4
				},
				"metallicFactor":0
			}
		},
		{
			"doubleSided":true,
			"extensions":{
				"KHR_materials_specular":{
					"specularFactor":0
				}
			},
			"name":"Cobblestone_Slab",
			"pbrMetallicRoughness":{
				"baseColorTexture":{
					"index":5
				},
				"metallicFactor":0
			}
		},
		{
			"doubleSided":true,
			"extensions":{
				"KHR_materials_specular":{
					"specularFactor":0
				}
			},
			"name":"Stone_Brick_Slab",
			"pbrMetallicRoughness":{
				"baseColorTexture":{
					"index":6
				},
				"metallicFactor":0
			}
		},
		{
			"doubleSided":true,
			"extensions":{
				"KHR_materials_specular":{
					"specularFactor":0
				}
			},
			"name":"Cobblestone_Stairs",
			"pbrMetallicRoughness":{
				"baseColorTexture":{
					"index":7
				},
				"metallicFactor":0
			}
		},
		{
			"doubleSided":true,
			"extensions":{
				"KHR_materials_specular":{
					"specularFactor":0
				}
			},
			"name":"Stone_Bricks",
			"pbrMetallicRoughness":{
				"baseColorTexture":{
					"index":8
				},
				"metallicFactor":0
			}
		},
		{
			"doubleSided":true,
			"extensions":{
				"KHR_materials_specular":{
					"specularFactor":0
				}
			},
			"name":"Mossy_Stone_Bricks",
			"pbrMetallicRoughness":{
				"baseColorTexture":{
					"index":9
				},
				"metallicFactor":0
			}
		},
		{
			"alphaMode":"BLEND",
			"doubleSided":true,
			"extensions":{
				"KHR_materials_specular":{
					"specularFactor":0.30000001192092896
				}
			},
			"name":"Iron_Bars",
			"pbrMetallicRoughness":{
				"baseColorTexture":{
					"index":10
				},
				"metallicFactor":0,
				"roughnessFactor":0.6429286003112793
			}
		},
		{
			"alphaMode":"BLEND",
			"doubleSided":true,
			"extensions":{
				"KHR_materials_specular":{
					"specularFactor":0
				}
			},
			"name":"Vines",
			"pbrMetallicRoughness":{
				"baseColorTexture":{
					"index":11
				},
				"metallicFactor":0
			}
		},
		{
			"doubleSided":true,
			"extensions":{
				"KHR_materials_specular":{
					"specularFactor":0
				}
			},
			"name":"Stone_Brick_Stairs",
			"pbrMetallicRoughness":{
				"baseColorTexture":{
					"index":12
				},
				"metallicFactor":0
			}
		}
	],
	"meshes":[
		{
			"name":"Abadoned_Factory_(Updated)__-768_5_-1063_to_-707_37_-1039",
			"primitives":[
				{
					"attributes":{
						"POSITION":0,
						"NORMAL":1,
						"TEXCOORD_0":2
					},
					"indices":3,
					"material":0
				},
				{
					"attributes":{
						"POSITION":4,
						"NORMAL":5,
						"TEXCOORD_0":6
					},
					"indices":7,
					"material":1
				},
				{
					"attributes":{
						"POSITION":8,
						"NORMAL":9,
						"TEXCOORD_0":10
					},
					"indices":11,
					"material":2
				},
				{
					"attributes":{
						"POSITION":12,
						"NORMAL":13,
						"TEXCOORD_0":14
					},
					"indices":15,
					"material":3
				},
				{
					"attributes":{
						"POSITION":16,
						"NORMAL":17,
						"TEXCOORD_0":18
					},
					"indices":19,
					"material":4
				},
				{
					"attributes":{
						"POSITION":20,
						"NORMAL":21,
						"TEXCOORD_0":22
					},
					"indices":23,
					"material":5
				},
				{
					"attributes":{
						"POSITION":24,
						"NORMAL":25,
						"TEXCOORD_0":26
					},
					"indices":27,
					"material":6
				},
				{
					"attributes":{
						"POSITION":28,
						"NORMAL":29,
						"TEXCOORD_0":30
					},
					"indices":31,
					"material":7
				},
				{
					"attributes":{
						"POSITION":32,
						"NORMAL":33,
						"TEXCOORD_0":34
					},
					"indices":35,
					"material":8
				},
				{
					"attributes":{
						"POSITION":36,
						"NORMAL":37,
						"TEXCOORD_0":38
					},
					"indices":39,
					"material":9
				},
				{
					"attributes":{
						"POSITION":40,
						"NORMAL":41,
						"TEXCOORD_0":42
					},
					"indices":43,
					"material":10
				},
				{
					"attributes":{
						"POSITION":44,
						"NORMAL":45,
						"TEXCOORD_0":46
					},
					"indices":47,
					"material":11
				},
				{
					"attributes":{
						"POSITION":48,
						"NORMAL":49,
						"TEXCOORD_0":50
					},
					"indices":51,
					"material":12
				}
			]
		}
	],
	"textures":[
		{
			"sampler":0,
			"source":0
		},
		{
			"sampler":0,
			"source":0
		},
		{
			"sampler":0,
			"source":0
		},
		{
			"sampler":0,
			"source":0
		},
		{
			"sampler":0,
			"source":1
		},
		{
			"sampler":0,
			"source":0
		},
		{
			"sampler":0,
			"source":0
		},
		{
			"sampler":0,
			"source":0
		},
		{
			"sampler":0,
			"source":0
		},
		{
			"sampler":0,
			"source":0
		},
		{
			"sampler":0,
			"source":1
		},
		{
			"sampler":0,
			"source":1
		},
		{
			"sampler":0,
			"source":0
		}
	],
	"images":[
		{
			"mimeType":"image/png",
			"name":"graveyard-RGB",
			"uri":"graveyard/graveyard-RGB.png"
		},
		{
			"mimeType":"image/png",
			"name":"graveyard-RGBA-graveyard-Alpha",
			"uri":"graveyard/graveyard-RGBA-graveyard-Alpha.png"
		}
	],
	"accessors":[
		{
			"bufferView":0,
			"componentType":5126,
			"count":18865,
			"max":[
				30,
				11,
				-1
			],
			"min":[
				-31,
				-10,
				-17
			],
			"type":"VEC3"
		},
		{
			"bufferView":1,
			"componentType":5126,
			"count":18865,
			"type":"VEC3"
		},
		{
			"bufferView":2,
			"componentType":5126,
			"count":18865,
			"type":"VEC2"
		},
		{
			"bufferView":3,
			"componentType":5123,
			"count":28374,
			"type":"SCALAR"
		},
		{
			"bufferView":4,
			"componentType":5126,
			"count":3836,
			"max":[
				31,
				13,
				0
			],
			"min":[
				-31,
				-12,
				-2
			],
			"type":"VEC3"
		},
		{
			"bufferView":5,
			"componentType":5126,
			"count":3836,
			"type":"VEC3"
		},
		{
			"bufferView":6,
			"componentType":5126,
			"count":3836,
			"type":"VEC2"
		},
		{
			"bufferView":7,
			"componentType":5123,
			"count":6390,
			"type":"SCALAR"
		},
		{
			"bufferView":8,
			"componentType":5126,
			"count":288,
			"max":[
				30,
				10,
				0
			],
			"min":[
				-30,
				-12,
				-1
			],
			"type":"VEC3"
		},
		{
			"bufferView":9,
			"componentType":5126,
			"count":288,
			"type":"VEC3"
		},
		{
			"bufferView":10,
			"componentType":5126,
			"count":288,
			"type":"VEC2"
		},
		{
			"bufferView":11,
			"componentType":5123,
			"count":444,
			"type":"SCALAR"
		},
		{
			"bufferView":12,
			"componentType":5126,
			"count":14616,
			"max":[
				30,
				11,
				-1
			],
			"min":[
				-31,
				-12,
				-20
			],
			"type":"VEC3"
		},
		{
			"bufferView":13,
			"componentType":5126,
			"count":14616,
			"type":"VEC3"
		},
		{
			"bufferView":14,
			"componentType":5126,
			"count":14616,
			"type":"VEC2"
		},
		{
			"bufferView":15,
			"componentType":5123,
			"count":21924,
			"type":"SCALAR"
		},
		{
			"bufferView":16,
			"componentType":5126,
			"count":2800,
			"max":[
				31.12820053100586,
				13.13539981842041,
				-1
			],
			"min":[
				-31.100200653076172,
				-12.13479995727539,
				-3
			],
			"type":"VEC3"
		},
		{
			"bufferView":17,
			"componentType":5126,
			"count":2800,
			"type":"VEC3"
		},
		{
			"bufferView":18,
			"componentType":5126,
			"count":2800,
			"type":"VEC2"
		},
		{
			"bufferView":19,
			"componentType":5123,
			"count":4200,
			"type":"SCALAR"
		},
		{
			"bufferView":20,
			"componentType":5126,
			"count":4652,
			"max":[
				30,
				13,
				-0.5
			],
			"min":[
				-30,
				-12,
				-19.5
			],
			"type":"VEC3"
		},
		{
			"bufferView":21,
			"componentType":5126,
			"count":4652,
			"type":"VEC3"
		},
		{
			"bufferView":22,
			"componentType":5126,
			"count":4652,
			"type":"VEC2"
		},
		{
			"bufferView":23,
			"componentType":5123,
			"count":6978,
			"type":"SCALAR"
		},
		{
			"bufferView":24,
			"componentType":5126,
			"count":956,
			"max":[
				29,
				-2,
				-6
			],
			"min":[
				-31,
				-9,
				-12.5
			],
			"type":"VEC3"
		},
		{
			"bufferView":25,
			"componentType":5126,
			"count":956,
			"type":"VEC3"
		},
		{
			"bufferView":26,
			"componentType":5126,
			"count":956,
			"type":"VEC2"
		},
		{
			"bufferView":27,
			"componentType":5123,
			"count":1434,
			"type":"SCALAR"
		},
		{
			"bufferView":28,
			"componentType":5126,
			"count":12280,
			"max":[
				30,
				11,
				-1
			],
			"min":[
				-31,
				-12,
				-20
			],
			"type":"VEC3"
		},
		{
			"bufferView":29,
			"componentType":5126,
			"count":12280,
			"type":"VEC3"
		},
		{
			"bufferView":30,
			"componentType":5126,
			"count":12280,
			"type":"VEC2"
		},
		{
			"bufferView":31,
			"componentType":5123,
			"count":18420,
			"type":"SCALAR"
		},
		{
			"bufferView":32,
			"componentType":5126,
			"count":15292,
			"max":[
				31,
				13,
				0
			],
			"min":[
				-31,
				-12,
				-15
			],
			"type":"VEC3"
		},
		{
			"bufferView":33,
			"componentType":5126,
			"count":15292,
			"type":"VEC3"
		},
		{
			"bufferView":34,
			"componentType":5126,
			"count":15292,
			"type":"VEC2"
		},
		{
			"bufferView":35,
			"componentType":5123,
			"count":22938,
			"type":"SCALAR"
		},
		{
			"bufferView":36,
			"componentType":5126,
			"count":2284,
			"max":[
				30,
				10,
				0
			],
			"min":[
				-31,
				-10,
				-1
			],
			"type":"VEC3"
		},
		{
			"bufferView":37,
			"componentType":5126,
			"count":2284,
			"type":"VEC3"
		},
		{
			"bufferView":38,
			"componentType":5126,
			"count":2284,
			"type":"VEC2"
		},
		{
			"bufferView":39,
			"componentType":5123,
			"count":3426,
			"type":"SCALAR"
		},
		{
			"bufferView":40,
			"componentType":5126,
			"count":1920,
			"max":[
				27.5625,
				12.5625,
				-1
			],
			"min":[
				-29.5625,
				-11.5625,
				-14
			],
			"type":"VEC3"
		},
		{
			"bufferView":41,
			"componentType":5126,
			"count":1920,
			"type":"VEC3"
		},
		{
			"bufferView":42,
			"componentType":5126,
			"count":1920,
			"type":"VEC2"
		},
		{
			"bufferView":43,
			"componentType":5123,
			"count":2880,
			"type":"SCALAR"
		},
		{
			"bufferView":44,
			"componentType":5126,
			"count":14300,
			"max":[
				30.0625,
				11.0625,
				-1
			],
			"min":[
				-31,
				-10.0625,
				-20
			],
			"type":"VEC3"
		},
		{
			"bufferView":45,
			"componentType":5126,
			"count":14300,
			"type":"VEC3"
		},
		{
			"bufferView":46,
			"componentType":5126,
			"count":14300,
			"type":"VEC2"
		},
		{
			"bufferView":47,
			"componentType":5123,
			"count":21450,
			"type":"SCALAR"
		},
		{
			"bufferView":48,
			"componentType":5126,
			"count":616,
			"max":[
				26,
				-2,
				-6
			],
			"min":[
				-31,
				-9,
				-13
			],
			"type":"VEC3"
		},
		{
			"bufferView":49,
			"componentType":5126,
			"count":616,
			"type":"VEC3"
		},
		{
			"bufferView":50,
			"componentType":5126,
			"count":616,
			"type":"VEC2"
		},
		{
			"bufferView":51,
			"componentType":5123,
			"count":924,
			"type":"SCALAR"
		}
	],
	"bufferViews":[
		{
			"buffer":0,
			"byteLength":226380,
			"byteOffset":0,
			"target":34962
		},
		{
			"buffer":0,
			"byteLength":226380,
			"byteOffset":226380,
			"target":34962
		},
		{
			"buffer":0,
			"byteLength":150920,
			"byteOffset":452760,
			"target":34962
		},
		{
			"buffer":0,
			"byteLength":56748,
			"byteOffset":603680,
			"target":34963
		},
		{
			"buffer":0,
			"byteLength":46032,
			"byteOffset":660428,
			"target":34962
		},
		{
			"buffer":0,
			"byteLength":46032,
			"byteOffset":706460,
			"target":34962
		},
		{
			"buffer":0,
			"byteLength":30688,
			"byteOffset":752492,
			"target":34962
		},
		{
			"buffer":0,
			"byteLength":12780,
			"byteOffset":783180,
			"target":34963
		},
		{
			"buffer":0,
			"byteLength":3456,
			"byteOffset":795960,
			"target":34962
		},
		{
			"buffer":0,
			"byteLength":3456,
			"byteOffset":799416,
			"target":34962
		},
		{
			"buffer":0,
			"byteLength":2304,
			"byteOffset":802872,
			"target":34962
		},
		{
			"buffer":0,
			"byteLength":888,
			"byteOffset":805176,
			"target":34963
		},
		{
			"buffer":0,
			"byteLength":175392,
			"byteOffset":806064,
			"target":34962
		},
		{
			"buffer":0,
			"byteLength":175392,
			"byteOffset":981456,
			"target":34962
		},
		{
			"buffer":0,
			"byteLength":116928,
			"byteOffset":1156848,
			"target":34962
		},
		{
			"buffer":0,
			"byteLength":43848,
			"byteOffset":1273776,
			"target":34963
		},
		{
			"buffer":0,
			"byteLength":33600,
			"byteOffset":1317624,
			"target":34962
		},
		{
			"buffer":0,
			"byteLength":33600,
			"byteOffset":1351224,
			"target":34962
		},
		{
			"buffer":0,
			"byteLength":22400,
			"byteOffset":1384824,
			"target":34962
		},
		{
			"buffer":0,
			"byteLength":8400,
			"byteOffset":1407224,
			"target":34963
		},
		{
			"buffer":0,
			"byteLength":55824,
			"byteOffset":1415624,
			"target":34962
		},
		{
			"buffer":0,
			"byteLength":55824,
			"byteOffset":1471448,
			"target":34962
		},
		{
			"buffer":0,
			"byteLength":37216,
			"byteOffset":1527272,
			"target":34962
		},
		{
			"buffer":0,
			"byteLength":13956,
			"byteOffset":1564488,
			"target":34963
		},
		{
			"buffer":0,
			"byteLength":11472,
			"byteOffset":1578444,
			"target":34962
		},
		{
			"buffer":0,
			"byteLength":11472,
			"byteOffset":1589916,
			"target":34962
		},
		{
			"buffer":0,
			"byteLength":7648,
			"byteOffset":1601388,
			"target":34962
		},
		{
			"buffer":0,
			"byteLength":2868,
			"byteOffset":1609036,
			"target":34963
		},
		{
			"buffer":0,
			"byteLength":147360,
			"byteOffset":1611904,
			"target":34962
		},
		{
			"buffer":0,
			"byteLength":147360,
			"byteOffset":1759264,
			"target":34962
		},
		{
			"buffer":0,
			"byteLength":98240,
			"byteOffset":1906624,
			"target":34962
		},
		{
			"buffer":0,
			"byteLength":36840,
			"byteOffset":2004864,
			"target":34963
		},
		{
			"buffer":0,
			"byteLength":183504,
			"byteOffset":2041704,
			"target":34962
		},
		{
			"buffer":0,
			"byteLength":183504,
			"byteOffset":2225208,
			"target":34962
		},
		{
			"buffer":0,
			"byteLength":122336,
			"byteOffset":2408712,
			"target":34962
		},
		{
			"buffer":0,
			"byteLength":45876,
			"byteOffset":2531048,
			"target":34963
		},
		{
			"buffer":0,
			"byteLength":27408,
			"byteOffset":2576924,
			"target":34962
		},
		{
			"buffer":0,
			"byteLength":27408,
			"byteOffset":2604332,
			"target":34962
		},
		{
			"buffer":0,
			"byteLength":18272,
			"byteOffset":2631740,
			"target":34962
		},
		{
			"buffer":0,
			"byteLength":6852,
			"byteOffset":2650012,
			"target":34963
		},
		{
			"buffer":0,
			"byteLength":23040,
			"byteOffset":2656864,
			"target":34962
		},
		{
			"buffer":0,
			"byteLength":23040,
			"byteOffset":2679904,
			"target":34962
		},
		{
			"buffer":0,
			"byteLength":15360,
			"byteOffset":2702944,
			"target":34962
		},
		{
			"buffer":0,
			"byteLength":5760,
			"byteOffset":2718304,
			"target":34963
		},
		{
			"buffer":0,
			"byteLength":171600,
			"byteOffset":2724064,
			"target":34962
		},
		{
			"buffer":0,
			"byteLength":171600,
			"byteOffset":2895664,
			"target":34962
		},
		{
			"buffer":0,
			"byteLength":114400,
			"byteOffset":3067264,
			"target":34962
		},
		{
			"buffer":0,
			"byteLength":42900,
			"byteOffset":3181664,
			"target":34963
		},
		{
			"buffer":0,
			"byteLength":7392,
			"byteOffset":3224564,
			"target":34962
		},
		{
			"buffer":0,
			"byteLength":7392,
			"byteOffset":3231956,
			"target":34962
		},
		{
			"buffer":0,
			"byteLength":4928,
			"byteOffset":3239348,
			"target":34962
		},
		{
			"buffer":0,
			"byteLength":1848,
			"byteOffset":3244276,
			"target":34963
		}
	],
	"samplers":[
		{
			"magFilter":9728,
			"minFilter":9984
		}
	],
	"buffers":[
		{
			"byteLength":3246124,
			"uri":"graveyard.bin"
		}
	]
}
