{
  "accessors": [
    {
      "bufferView": 2,
      "componentType": 5126,
      "count": 165,
      "max": [
        1.120986819267273,
        12.984197616577148,
        3.0409727096557617
      ],
      "min": [
        -8.343299865722656,
        -15.80820369720459,
        -1.8205196857452393
      ],
      "type": "VEC3"
    },
    {
      "bufferView": 2,
      "byteOffset": 1980,
      "componentType": 5126,
      "count": 165,
      "max": [
        0.9999431371688843,
        1.0,
        0.9990525841712952
      ],
      "min": [
        -0.999925971031189,
        -0.9999749660491943,
        -0.999950647354126
      ],
      "type": "VEC3"
    },
    {
      "bufferView": 1,
      "componentType": 5126,
      "count": 165,
      "max": [
        0.8830826878547668,
        0.9795697927474976
      ],
      "min": [
        0.013751599937677383,
        0.4936925172805786
      ],
      "type": "VEC2"
    },
    {
      "bufferView": 0,
      "componentType": 5125,
      "count": 555,
      "type": "SCALAR"
    },
    {
      "bufferView": 2,
      "byteOffset": 3960,
      "componentType": 5126,
      "count": 103,
      "max": [
        1.741518259048462,
        12.41960620880127,
        2.0300452709198
      ],
      "min": [
        -1.7520934343338013,
        -9.307114601135254,
        -0.6917179226875305
      ],
      "type": "VEC3"
    },
    {
      "bufferView": 2,
      "byteOffset": 5196,
      "componentType": 5126,
      "count": 103,
      "max": [
        0.8994598984718323,
        0.991237461566925,
        0.9970503449440002
      ],
      "min": [
        -0.9104118943214417,
        -0.9726973176002502,
        -0.9999022483825684
      ],
      "type": "VEC3"
    },
    {
      "bufferView": 1,
      "byteOffset": 1320,
      "componentType": 5126,
      "count": 103,
      "max": [
        0.9988545179367065,
        0.6787446141242981
      ],
      "min": [
        0.013751599937677383,
        0.4779426157474518
      ],
      "type": "VEC2"
    },
    {
      "bufferView": 0,
      "byteOffset": 2220,
      "componentType": 5125,
      "count": 456,
      "type": "SCALAR"
    },
    {
      "bufferView": 2,
      "byteOffset": 6432,
      "componentType": 5126,
      "count": 88,
      "max": [
        0.8108882904052734,
        0.34871989488601685,
        0.8588947653770447
      ],
      "min": [
        -0.8108882308006287,
        -8.592228889465332,
        -1.097185730934143
      ],
      "type": "VEC3"
    },
    {
      "bufferView": 2,
      "byteOffset": 7488,
      "componentType": 5126,
      "count": 88,
      "max": [
        0.9952301979064941,
        1.0,
        0.9464865922927856
      ],
      "min": [
        -0.9952301979064941,
        -0.9683628082275391,
        -0.9999675750732422
      ],
      "type": "VEC3"
    },
    {
      "bufferView": 1,
      "byteOffset": 2144,
      "componentType": 5126,
      "count": 88,
      "max": [
        0.9998179078102112,
        0.9932464361190796
      ],
      "min": [
        0.00018205282685812563,
        0.00018205282685812563
      ],
      "type": "VEC2"
    },
    {
      "bufferView": 0,
      "byteOffset": 4044,
      "componentType": 5125,
      "count": 366,
      "type": "SCALAR"
    }
  ],
  "asset": {
    "extras": {
      "author": "shtran (https://sketchfab.com/shtran)",
      "license": "CC-BY-4.0 (http://creativecommons.org/licenses/by/4.0/)",
      "source": "https://sketchfab.com/3d-models/wood-pile-cbfb0798651a4012a98493deb9a456dc",
      "title": "Wood Pile"
    },
    "generator": "Sketchfab-12.68.0",
    "version": "2.0"
  },
  "bufferViews": [
    {
      "buffer": 0,
      "byteLength": 5508,
      "name": "floatBufferViews",
      "target": 34963
    },
    {
      "buffer": 0,
      "byteLength": 2848,
      "byteOffset": 5508,
      "byteStride": 8,
      "name": "floatBufferViews",
      "target": 34962
    },
    {
      "buffer": 0,
      "byteLength": 8544,
      "byteOffset": 8356,
      "byteStride": 12,
      "name": "floatBufferViews",
      "target": 34962
    }
  ],
  "buffers": [
    {
      "byteLength": 16900,
      "uri": "wood_log.bin"
    }
  ],
  "extensionsRequired": [
    "KHR_materials_pbrSpecularGlossiness"
  ],
  "extensionsUsed": [
    "KHR_materials_pbrSpecularGlossiness"
  ],
  "images": [
    {
      "uri": "textures/WoodPile_01_diffuse.png"
    }
  ],
  "materials": [
    {
      "extensions": {
        "KHR_materials_pbrSpecularGlossiness": {
          "diffuseFactor": [
            1.0,
            1.0,
            1.0,
            1.0
          ],
          "diffuseTexture": {
            "index": 0
          },
          "glossinessFactor": 0.5,
          "specularFactor": [
            0.0,
            0.0,
            0.0
          ]
        }
      },
      "name": "WoodPile_01"
    }
  ],
  "meshes": [
    {
      "name": "Object_0",
      "primitives": [
        {
          "attributes": {
            "NORMAL": 1,
            "POSITION": 0,
            "TEXCOORD_0": 2
          },
          "indices": 3,
          "material": 0,
          "mode": 4
        }
      ]
    },
    {
      "name": "Object_1",
      "primitives": [
        {
          "attributes": {
            "NORMAL": 5,
            "POSITION": 4,
            "TEXCOORD_0": 6
          },
          "indices": 7,
          "material": 0,
          "mode": 4
        }
      ]
    },
    {
      "name": "Object_2",
      "primitives": [
        {
          "attributes": {
            "NORMAL": 9,
            "POSITION": 8,
            "TEXCOORD_0": 10
          },
          "indices": 11,
          "material": 0,
          "mode": 4
        }
      ]
    }
  ],
  "nodes": [
    {
      "children": [
        1
      ],
      "matrix": [
        1.0,
        0.0,
        0.0,
        0.0,
        0.0,
        2.220446049250313e-16,
        -1.0,
        0.0,
        0.0,
        1.0,
        2.220446049250313e-16,
        0.0,
        0.0,
        0.0,
        0.0,
        1.0
      ],
      "name": "Sketchfab_model"
    },
    {
      "children": [
        2
      ],
      "name": "root"
    },
    {
      "children": [
        3,
        5,
        7
      ],
      "matrix": [
        1.0,
        0.0,
        0.0,
        0.0,
        0.0,
        2.220446049250313e-16,
        1.0,
        0.0,
        0.0,
        -1.0,
        2.220446049250313e-16,
        0.0,
        0.0,
        0.0,
        0.0,
        1.0
      ],
      "name": "GLTF_SceneRootNode"
    },
    {
      "children": [
        4
      ],
      "matrix": [
        0.17854058742523193,
        0.0,
        0.0,
        0.0,
        0.0,
        1.5049845786193508e-08,
        0.17854058742523132,
        0.0,
        0.0,
        -0.17854058742523132,
        1.5049845786193508e-08,
        0.0,
        -1.0451464653015137,
        -0.23429249227046967,
        1.9127700328826904,
        1.0
      ],
      "name": "Snag2_0"
    },
    {
      "mesh": 0,
      "name": "Object_4"
    },
    {
      "children": [
        6
      ],
      "matrix": [
        0.2907835626291886,
        0.06955204368261862,
        -0.11044890407122024,
        0.0,
        0.08571364461669939,
        0.1016525180428641,
        0.2896747558700155,
        0.0,
        0.0984358496965685,
        -0.29397413171969583,
        0.07403446401784668,
        0.0,
        -1.2299808263778687,
        -0.006823301315307617,
        1.1175742149353027,
        1.0
      ],
      "name": "Snag1_1"
    },
    {
      "mesh": 1,
      "name": "Object_6"
    },
    {
      "children": [
        8
      ],
      "matrix": [
        1.0,
        0.0,
        0.0,
        0.0,
        0.0,
        8.429369480200677e-08,
        0.9999999999999966,
        0.0,
        0.0,
        -0.9999999999999966,
        8.429369480200677e-08,
        0.0,
        0.0,
        0.0,
        5.1802849769592285,
        1.0
      ],
      "name": "Log_2"
    },
    {
      "mesh": 2,
      "name": "Object_8"
    }
  ],
  "samplers": [
    {
      "magFilter": 9729,
      "minFilter": 9987,
      "wrapS": 10497,
      "wrapT": 10497
    }
  ],
  "scene": 0,
  "scenes": [
    {
      "name": "Sketchfab_Scene",
      "nodes": [
        0
      ]
    }
  ],
  "textures": [
    {
      "sampler": 0,
      "source": 0
    }
  ]
}
