{
	"asset":{
		"generator":"Khronos glTF Blender I/O v5.0.21",
		"version":"2.0"
	},
	"extensionsUsed":[
		"KHR_materials_specular",
		"KHR_materials_ior"
	],
	"scene":0,
	"scenes":[
		{
			"name":"Scene",
			"nodes":[
				8
			]
		}
	],
	"nodes":[
		{
			"mesh":0,
			"name":"Object_6",
			"rotation":[
				-0.6328305006027222,
				-0.020384078845381737,
				0.3198060095310211,
				0.7048646211624146
			],
			"translation":[
				-0.00015300948871299624,
				0.002130890963599086,
				0.0010152390459552407
			]
		},
		{
			"children":[
				0
			],
			"name":"cylinder_0",
			"rotation":[
				0,
				-0.0019404630875214934,
				3.97484745917609e-06,
				1
			]
		},
		{
			"name":"cylinder_1",
			"rotation":[
				0,
				-0.0019404630875214934,
				3.97484745917609e-06,
				1
			]
		},
		{
			"name":"cylinder_2",
			"rotation":[
				0,
				-0.0019404630875214934,
				3.97484745917609e-06,
				1
			]
		},
		{
			"name":"cylinder_3",
			"rotation":[
				0,
				-0.0019404630875214934,
				3.97484745917609e-06,
				1
			]
		},
		{
			"children":[
				1,
				2,
				3,
				4
			],
			"name":"bone_4",
			"rotation":[
				0,
				-0.0019404555205255747,
				3.9748479139234405e-06,
				1
			]
		},
		{
			"children":[
				5
			],
			"name":"_5",
			"rotation":[
				0,
				-0.0019404853228479624,
				3.974872470280388e-06,
				1
			]
		},
		{
			"children":[
				6
			],
			"name":"GLTF_SceneRootNode",
			"rotation":[
				0.7071067690849304,
				-0.0013749232748523355,
				-0.0013692944776266813,
				0.7071041464805603
			]
		},
		{
			"children":[
				7
			],
			"name":"root",
			"rotation":[
				-0.6904507279396057,
				-0.14882929623126984,
				-0.1491764932870865,
				0.6920072436332703
			]
		}
	],
	"materials":[
		{
			"doubleSided":true,
			"extensions":{
				"KHR_materials_specular":{
					"specularColorFactor":[
						0.10000000149011612,
						0.10000000149011612,
						0.10000000149011612
					]
				},
				"KHR_materials_ior":{
					"ior":1000
				}
			},
			"name":"material_0",
			"pbrMetallicRoughness":{
				"baseColorTexture":{
					"index":0
				},
				"metallicFactor":0,
				"roughnessFactor":0.75
			}
		}
	],
	"meshes":[
		{
			"name":"Object_0",
			"primitives":[
				{
					"attributes":{
						"POSITION":0,
						"NORMAL":1,
						"TEXCOORD_0":2
					},
					"indices":3,
					"material":0
				}
			]
		}
	],
	"textures":[
		{
			"sampler":0,
			"source":0
		}
	],
	"images":[
		{
			"mimeType":"image/png",
			"name":"material_0_diffuse",
			"uri":"material_0_diffuse.png"
		}
	],
	"accessors":[
		{
			"bufferView":0,
			"componentType":5126,
			"count":578,
			"max":[
				0.047296155244112015,
				0.3169001638889313,
				0.0464416928589344
			],
			"min":[
				-0.046453844755887985,
				-0.2862248122692108,
				-0.047308310866355896
			],
			"type":"VEC3"
		},
		{
			"bufferView":1,
			"componentType":5126,
			"count":578,
			"type":"VEC3"
		},
		{
			"bufferView":2,
			"componentType":5126,
			"count":578,
			"type":"VEC2"
		},
		{
			"bufferView":3,
			"componentType":5123,
			"count":936,
			"type":"SCALAR"
		}
	],
	"bufferViews":[
		{
			"buffer":0,
			"byteLength":6936,
			"byteOffset":0,
			"target":34962
		},
		{
			"buffer":0,
			"byteLength":6936,
			"byteOffset":6936,
			"target":34962
		},
		{
			"buffer":0,
			"byteLength":4624,
			"byteOffset":13872,
			"target":34962
		},
		{
			"buffer":0,
			"byteLength":1872,
			"byteOffset":18496,
			"target":34963
		}
	],
	"samplers":[
		{
			"magFilter":9728,
			"minFilter":9984,
			"wrapS":33071,
			"wrapT":33071
		}
	],
	"buffers":[
		{
			"byteLength":20368,
			"uri":"bullet.bin"
		}
	]
}
